<!--?xml version="1.0" encoding="utf-8"?-->
<!-- Svg Vector Icons : http://www.onlinewebfonts.com/icon -->

<svg version="1.1" xmlns="http://www.w3.org/2000/svg" xmlns:xlink="http://www.w3.org/1999/xlink" x="0px" y="0px" viewBox="0 0 256 256" enable-background="new 0 0 256 256" xml:space="preserve">
<metadata> Svg Vector Icons : http://www.onlinewebfonts.com/icon </metadata>
<g><g><g><path fill="#ffffff" data-title="Layer 0" xs="0" d="M33.3,10.7c-11,2.7-20,11.8-22.6,22.8C10.1,36,10,50.5,10,128c0,101.2-0.2,93.7,3,100.6c2.9,6.2,8.8,11.9,15.2,14.7c6.2,2.8,1.7,2.7,99.9,2.7c100.3,0,93.3,0.2,100.7-3.3c5.7-2.7,11.1-8.2,13.8-13.8c3.5-7.4,3.3-0.5,3.3-100.7c0-98.2,0.1-93.6-2.7-99.9c-2.8-6.4-8.5-12.3-14.7-15.2c-6.9-3.3,0.6-3-100.9-3C52.4,10.1,35.5,10.2,33.3,10.7z M212.9,22.8c5.2,1.3,9,3.5,12.9,7.4c3.6,3.6,6.2,8.2,7.4,13.1c0.6,2.1,0.7,17.3,0.7,84.9c0,78.6,0,82.5-0.9,85.2c-3,9.7-9.9,16.6-19.6,19.6c-2.7,0.8-6.6,0.9-85.2,0.9c-67.6,0-82.8-0.1-84.9-0.7c-4.9-1.2-9.5-3.8-13.1-7.4c-3.9-3.9-6-7.7-7.4-12.9c-1-3.6-1-5.6-1-84.6c0-56.1,0.1-81.8,0.5-83.8c1.5-8.2,7.7-16.1,15.3-19.7c2.2-1,5-2,6.3-2.3c1.4-0.3,34.5-0.5,83.8-0.5C207.4,21.9,209.3,21.9,212.9,22.8z"/><path fill="#ffffff" data-title="Layer 1" xs="1" d="M93.7,128v55.2h34h34v-5.9v-5.9h-26.4H109v-19.7v-19.7h22.6h22.6v-5.7v-5.7h-22.6H109v-17.8V84.7l26.1-0.1l26-0.1l0.1-5.9l0.1-5.8h-33.8H93.7V128z"/></g></g></g>
</svg>