<!--?xml version="1.0" encoding="utf-8"?-->
<!-- Svg Vector Icons : http://www.onlinewebfonts.com/icon -->

<svg version="1.1" xmlns="http://www.w3.org/2000/svg" xmlns:xlink="http://www.w3.org/1999/xlink" x="0px" y="0px" viewBox="0 0 256 256" enable-background="new 0 0 256 256" xml:space="preserve">
<metadata> Svg Vector Icons : http://www.onlinewebfonts.com/icon </metadata>
<g><g><g><path fill="#ffffff" data-title="Layer 0" xs="0" d="M32.9,10.9C22,13.8,13.5,22.4,10.8,33.1c-0.7,2.6-0.8,13-0.8,95c0,82,0.1,92.4,0.8,95c2.6,10.2,10.4,18.4,21.1,22c2.5,0.9,6,0.9,96.2,0.9h93.6l3.5-1.3c9.7-3.5,16.8-10.9,19.7-20.4l1.1-3.6v-92.6V35.4l-1.1-3.6c-3-9.6-10.6-17.3-20.1-20.6l-3.1-1l-92.9-0.1C41.4,10,35.8,10,32.9,10.9z M212,22.6c9.6,2,17.3,8.9,20.7,18.6l1.3,3.8v83.1v83.1l-1.3,3.8c-3,8.7-9,14.6-17.5,17.8l-3.5,1.3l-82,0.1c-71.5,0.1-82.5,0-85.5-0.6c-10.5-2.1-19.1-10.5-21.6-20.8c-1-4.5-1.1-164.8,0-169.4c2.4-10.2,11-18.6,21.2-20.8C48.5,21.6,207.3,21.6,212,22.6z"/><path fill="#ffffff" data-title="Layer 1" xs="1" d="M119.3,66.7c-18.9,1.4-33.5,15-38.1,35.2c-0.6,2.7-0.9,6.8-1,18.1c-0.3,21,0.5,27.2,5.1,36.5c4.4,9,10.7,15.5,18.8,19.5c6.8,3.3,10.5,4.1,19.5,4.2c9.1,0,13.5-0.9,20.7-4.3l4.5-2.1l2.1,2c1.2,1.1,4.9,4.7,8.2,8c3.3,3.2,6.2,5.8,6.5,5.7c0.2-0.1,2.7-2.3,5.3-4.9l4.9-4.7l-8.2-8l-8.3-8l1.6-2.3c2.4-3.5,5.2-9.8,6.6-15l1.3-4.6v-18.6c0-17.7,0-18.8-1-22.8c-4.5-17.6-17.6-30.5-34-33.4C128.5,66.5,124.6,66.3,119.3,66.7z M130.7,79.2c11,2.3,19.1,10.7,22.2,23.1c0.9,3.5,1,5.8,1.2,17.7c0.3,19.2-0.5,25.2-4.5,33c-2.3,4.4-7.9,10-11.9,12c-4.6,2.3-9.2,3.1-15.5,2.9c-6.2-0.3-9.2-1.2-13.8-4.4c-5.1-3.5-9.6-10.1-11.8-17.4c-1-3.3-1.1-4.7-1.3-20.3c-0.1-11,0-18,0.4-20.2c2.1-13.5,10.6-24,21.6-26.3C121.3,78.4,126.7,78.4,130.7,79.2z"/></g></g></g>
</svg>